<?xml version="1.0" encoding="UTF-8"?>
<svg xmlns="http://www.w3.org/2000/svg" version="1.1" viewBox="0 0 2442.4 2466">
  <!-- Generator: Adobe Illustrator 30.4.0, SVG Export Plug-In . SVG Version: 2.1.4 Build 226)  -->
  <defs>
    <style>
      .st0 {
        fill: none;
        stroke: #000;
        stroke-linecap: round;
        stroke-linejoin: round;
        stroke-width: 6px;
      }

      .st1 {
        display: none;
      }
    </style>
  </defs>
  <g id="Base" class="st1">
    <circle class="st0" cx="798.6" cy="433.1" r="405.9"/>
    <circle class="st0" cx="1643.8" cy="433.1" r="405.9"/>
    <circle class="st0" cx="434.1" cy="1197.5" r="405.9"/>
    <circle class="st0" cx="2008.3" cy="1197.5" r="405.9"/>
    <circle class="st0" cx="2008.3" cy="2032.8" r="405.9"/>
    <circle class="st0" cx="434.1" cy="2032.8" r="405.9"/>
  </g>
  <g id="Layer_1">
    <g id="label-D2">
      <path d="M596,403.3c13.8,0,23.1,8.9,23.1,22.5s-9.2,22.5-23.1,22.5h-15.2c-.5,0-.9-.5-.9-1v-43.1c0-.5.5-1,.9-1h15.2ZM596.8,436.6c5,0,8.4-4.3,8.4-10.8s-3.4-10.8-8.4-10.8h-3.4v21.6h3.4Z"/>
    </g>
    <g id="label-D3">
      <path d="M914.3,213.7c13.8,0,23.1,8.9,23.1,22.5s-9.2,22.5-23.1,22.5h-15.2c-.5,0-.9-.5-.9-1v-43.1c0-.5.5-1,.9-1h15.2ZM915.1,247c5,0,8.4-4.3,8.4-10.8s-3.4-10.8-8.4-10.8h-3.4v21.6h3.4Z"/>
    </g>
    <g id="label-G2">
      <path d="M962.3,593c.5,0,1,.5,1,.9v20.8c0,.6-.3,1.2-.8,1.6-3.9,3.3-9.9,5.3-16.2,5.3-14.1,0-23.5-9.4-23.5-23.5s9.4-23.5,23.5-23.5,9.9,1.4,13.7,3.8c.5.3.7.8.6,1.2l-3.3,9.6c-.2.5-.7.7-1.2.5-2.7-1.4-6.1-2.3-9.4-2.3-6,0-10.1,4.3-10.1,10.7s4,10.8,10.1,10.8,4-.5,4.8-1.2v-3.8h-6c-.6,0-1-.3-1-.7l-.8-9c0-.7.3-1.1,1-1.1h17.7-.1ZM951.8,606.7v.3-.3Z"/>
    </g>
    <g id="note-D3">
      <path class="st0" d="M1195.8,349l-203.2,48.9c-108,26-217.2-38-247.2-144.9l-59.1-210c35.7-10.3,73.3-15.8,112.3-15.8,195.3,0,358.4,138,397.2,321.8Z"/>
    </g>
    <g id="note-G2">
      <path class="st0" d="M1195.8,349.1c5.7,27.1,8.7,55.2,8.7,84,0,224.2-181.7,405.9-405.9,405.9s-94.5-8.4-137.4-23.8l68.4-183.7c43.5-117,142.4-204.6,263.8-233.8l202.4-48.6Z"/>
    </g>
    <g id="note-D2">
      <path class="st0" d="M752.5,277.7c30.4,108.3,25.7,223.5-13.4,329l-77.1,208.2-.2.5c-156.8-56.2-269-206.1-269-382.2S516.9,91.5,686.5,42.9l.4,1.5,65.5,233.3Z"/>
    </g>
    <g id="label-A2">
      <path d="M1596.1,651.3c.2.4,0,.8-.6.8h-12.9c-.6,0-1.1-.3-1.4-.8l-2-6.9h-12.3l-2,6.9c-.3.5-.8.8-1.4.8h-12.9c-.5,0-.8-.5-.6-.8l14.8-43.4c.2-.4.9-.8,1.6-.8h13.3c.7,0,1.4.5,1.6.8l14.8,43.4ZM1573.2,622.7l-3.5,12.4h7.1l-3.5-12.4h-.1Z"/>
    </g>
    <g id="label-E2">
      <path d="M1564.6,252.8c.5,0,1,.4,1,.8v10c0,.5-.5.9-1,.9h-30.4c-.5,0-.9-.5-1-1v-43.2c0-.6.3-.9.9-.9h29.7c.6,0,1,.5,1,.9v9.9c0,.6-.5,1-1,1h-17v5.2h13.8c.6,0,.9.5.8.8l-.9,9.1c0,.4-.5.8-1.1.8h-12.7v5.6h17.9Z"/>
    </g>
    <g id="label-E3">
      <path d="M1915.1,449c.5,0,1,.4,1,.8v10c0,.5-.5.9-1,.9h-30.4c-.5,0-.9-.5-1-1v-43.2c0-.6.3-.9.9-.9h29.7c.6,0,1,.5,1,.9v9.9c0,.6-.5,1-1,1h-17v5.2h13.8c.6,0,.9.5.8.8l-.9,9.1c0,.4-.5.8-1.1.8h-12.7v5.6h17.9Z"/>
    </g>
    <g id="note-A2">
      <path class="st0" d="M1933.6,717.3c-73.7,75.1-176.3,121.8-289.9,121.8-212.7,0-387.2-163.6-404.5-371.8l246.6-22.2c104.3-9.4,207.4,28.4,280.9,103l166.7,169.1.2.2Z"/>
    </g>
    <g id="note-E3">
      <path class="st0" d="M1932.8,148.1c72.3,73.3,116.9,173.9,116.9,285s-44.1,210.5-115.6,283.7l-177.2-179.2c-58.8-59.4-58.5-155.1.6-214.2l175.2-175.2h.1Z"/>
    </g>
    <g id="note-E2">
      <path class="st0" d="M1932.1,147.4l-158.2,159c-79.6,80-184.8,129.4-297.2,139.5l-237.4,21.3c-.9-11.2-1.4-22.6-1.4-34.1,0-224.2,181.7-405.9,405.9-405.9s214.7,45.9,288.3,120.1Z"/>
    </g>
    <g id="label-Bb2">
      <g>
        <path d="M615.5,1856.1c8.6,0,14.2,5.1,14.2,12.7s-2.3,8.2-5.8,9.2c4.1,1,6.8,5,6.8,10.4s-5.7,12.7-14.2,12.7h-20.7c-.5,0-.9-.5-.9-.9v-43.2c0-.5.4-1,.9-1h19.7ZM612.5,1873.8c2,0,3.3-1.2,3.3-3s-1.3-3-3.3-3h-4.1v6h4.1ZM613.7,1889.5c1.9,0,3.2-1.2,3.2-3.1s-1.3-3.1-3.2-3.1h-5.3v6.3h5.3Z"/>
        <path d="M647.4,1864.6c1.5-1.2,3.7-1.9,6-1.9,7.7,0,12.9,5.7,12.9,14.2s-5.2,14.2-12.9,14.2-6.4-1.3-8.3-3.2l-.7,1.8c-.2.4-.4.7-.8.7h-5.5c-.4,0-.7-.3-.7-.7v-34.1c0-.3.3-.7.7-.7h8.6c.4,0,.7.3.7.7v9.1h0ZM647.4,1880.1c.6,1.6,2.2,2.7,3.9,2.7,2.7,0,4.5-2.4,4.5-5.9s-1.8-5.7-4.5-5.7-3.3,1.1-3.9,2.7v6.2h0Z"/>
      </g>
    </g>
    <g id="label-F2">
      <path d="M690.2,1176.9c.6,0,1,.5,1,.9v9.9c0,.6-.4,1-1,1h-16.6v5.9h13.1c.6,0,.9.5.8.8l-.9,9.1c0,.4-.5.8-1.1.8h-12v15.6c0,.5-.5.9-1,.9h-11.6c-.5,0-.9-.5-.9-1v-43.2c0-.5.4-.9.9-.9h29.1l.2.2Z"/>
    </g>
    <g id="label-C2">
      <path d="M295.5,1344.6c.2.5,0,.9-.6,1.2-3.8,2.4-8.9,3.8-13.7,3.8-13.5,0-22.5-9.4-22.5-23.5s9-23.5,22.5-23.5,9.9,1.4,13.7,3.8c.5.3.8.7.6,1.2l-4.3,9.1c-.3.6-.7.8-1.2.5-2.4-1.4-4.8-1.8-7.6-1.8-5.9,0-9.8,4.3-9.8,10.8s3.9,10.8,9.8,10.8,5.2-.5,7.6-1.8c.5-.3,1,0,1.2.5l4.3,9.1v-.2h0Z"/>
    </g>
    <g id="label-C3">
      <path d="M391.4,978.5c.2.5,0,.9-.6,1.2-3.8,2.4-8.9,3.8-13.7,3.8-13.5,0-22.5-9.4-22.5-23.5s9-23.5,22.5-23.5,9.9,1.4,13.7,3.8c.5.3.8.7.6,1.2l-4.3,9.1c-.3.6-.7.8-1.2.5-2.4-1.4-4.8-1.8-7.6-1.8-5.9,0-9.8,4.3-9.8,10.8s3.9,10.8,9.8,10.8,5.2-.5,7.6-1.8c.5-.3,1,0,1.2.5l4.3,9.1v-.2h0Z"/>
    </g>
    <g id="note-Bb2">
      <path class="st0" d="M850,2032.8c0,54.5-10.7,106.5-30.2,153.9l-196.8-97.3c-126.4-62.5-209.4-188.1-217.3-328.9l-7.4-131.1c15-1.7,30.3-2.6,45.8-2.6,224.2,0,405.9,181.7,405.9,405.9Z"/>
    </g>
    <g id="note-Eb2">
      <path class="st0" d="M660.6,2108.4l159,78.9c-60.8,147.6-206,251.5-375.5,251.5s-338.7-121.9-388.8-289.1l116.4-51.7c156.4-69.5,335.6-65.6,489,10.4Z"/>
    </g>
    <g id="note-Eb3">
      <path class="st0" d="M407.7,1790.8c6.6,118.9-61,229.6-169.8,278.1l-182.2,81.2h-.2c-11.2-37.1-17.2-76.5-17.2-117.3,0-208.8,157.7-380.8,360.5-403.4l.3,2.5,8.7,158.8Z"/>
    </g>
    <g id="label-Eb3">
      <g>
        <path d="M235.4,1905c.5,0,1,.4,1,.8v10c0,.5-.5.9-1,.9h-30.4c-.5,0-.9-.5-1-1v-43.2c0-.6.3-.9.9-.9h29.7c.6,0,1,.5,1,.9v9.9c0,.6-.5,1-1,1h-17v5.2h13.8c.6,0,.9.5.8.8l-.9,9.1c0,.4-.5.8-1.1.8h-12.7v5.6h17.9Z"/>
        <path d="M252.9,1880.2c1.5-1.2,3.7-1.9,6-1.9,7.7,0,12.9,5.7,12.9,14.2s-5.2,14.2-12.9,14.2-6.4-1.3-8.3-3.2l-.7,1.8c-.2.4-.4.7-.8.7h-5.5c-.4,0-.7-.3-.7-.7v-34.1c0-.3.3-.7.7-.7h8.6c.4,0,.7.3.7.7v9.1h0ZM252.9,1895.7c.6,1.6,2.2,2.7,3.9,2.7,2.7,0,4.5-2.4,4.5-5.9s-1.8-5.7-4.5-5.7-3.3,1.1-3.9,2.7v6.2h0Z"/>
      </g>
    </g>
    <g id="note-C3">
      <path class="st0" d="M644.5,844.4l-108.5,179.1c-54.9,90.8-171.1,123-264.9,73.5l-182.2-96.1c69.2-124.8,202.3-209.3,355.2-209.3s141.3,19.2,200.4,52.8Z"/>
    </g>
    <g id="note-F2">
      <path class="st0" d="M644.5,844.4c121.8,70.1,205.5,202.5,205.5,353.1s-86.6,289.4-214.1,357.8l-97.1-181.8c-62.3-116.7-58.2-257.6,10.9-370.4l94.8-158.6Z"/>
    </g>
    <g id="note-C2">
      <path class="st0" d="M636,1554.6l.3.5c-57.2,30.8-122.6,48.3-192.2,48.3-224.2,0-405.9-181.7-405.9-405.9s18.4-138.4,50.7-196.6l118.3,63.9c150.4,78.4,273.8,200.4,353.9,349.9l74.9,139.9Z"/>
    </g>
    <g id="label-B2">
      <path d="M1869.9,1308.2c8.6,0,14.2,5.1,14.2,12.7s-2.3,8.2-5.8,9.2c4.1,1,6.8,5,6.8,10.4s-5.7,12.7-14.2,12.7h-20.7c-.5,0-.9-.5-.9-.9v-43.2c0-.5.4-1,.9-1h19.7ZM1866.9,1325.9c2,0,3.3-1.2,3.3-3s-1.3-3-3.3-3h-4.1v6h4.1ZM1868.1,1341.5c1.9,0,3.2-1.2,3.2-3.1s-1.3-3.1-3.2-3.1h-5.3v6.3h5.3Z"/>
    </g>
    <g id="label-B3">
      <path d="M1977.9,935.2c8.6,0,14.2,5.1,14.2,12.7s-2.3,8.2-5.8,9.2c4.1,1,6.8,5,6.8,10.4s-5.7,12.7-14.2,12.7h-20.7c-.5,0-.9-.5-.9-.9v-43.2c0-.5.4-1,.9-1h19.7ZM1974.9,952.9c2,0,3.3-1.2,3.3-3s-1.3-3-3.3-3h-4.1v6h4.1ZM1976.1,968.5c1.9,0,3.2-1.2,3.2-3.1s-1.3-3.1-3.2-3.1h-5.3v6.3h5.3Z"/>
    </g>
    <g id="label-F#2">
      <g>
        <path d="M2243.2,1170.7c.6,0,1,.5,1,.9v9.9c0,.6-.4,1-1,1h-16.6v5.9h13.1c.6,0,.9.5.8.8l-.9,9.1c0,.4-.5.8-1.1.8h-12v15.6c0,.5-.5.9-1,.9h-11.6c-.5,0-.9-.5-.9-1v-43.2c0-.5.4-.9.9-.9h29.1l.2.2h0Z"/>
        <path d="M2270.9,1196.6h5c.5,0,.8.5.8.9v6.2c0,.5-.4.9-.8.9h-7.6l-1.6,5.4c0,.4-.7.8-1.1.8h-6.4c-.5,0-.7-.4-.6-.8l1.7-5.4h-2.5l-1.7,5.4c0,.4-.7.8-1.1.8h-6.3c-.5,0-.7-.4-.6-.8l1.6-5.4h-1.9c-.5,0-.8-.4-.8-.9v-6.2c0-.5.3-.9.8-.9h4.4l.7-2.2h-5.1c-.5,0-.8-.4-.8-.8v-6.3c0-.5.3-1,.8-1h7.6l1.6-5.4c0-.4.7-.8,1.1-.8h6.4c.5,0,.7.4.6.8l-1.6,5.4h2.5l1.7-5.4c0-.4.7-.8,1.1-.8h6.3c.5,0,.8.4.7.8l-1.7,5.4h1.9c.5,0,.8.5.8,1v6.3c0,.5-.4.8-.8.8h-4.4l-.7,2.2h0ZM2261,1194.3l-.7,2.2h2.5l.7-2.2h-2.5Z"/>
      </g>
    </g>
    <g id="note-F#2">
      <path class="st0" d="M2256.2,884c90.4,74.5,148,187.2,148,313.5s-64.6,252.2-164.3,326.2l-140.5-222.8c-49.5-78.5-42.5-179.9,17.2-250.9l139.7-166Z"/>
    </g>
    <g id="note-B3">
      <path class="st0" d="M2254.9,883l-159.1,190.8c-46.7,56-125.6,73-191.2,41.1l-255.6-124.2c70.7-119.2,200.7-199.1,349.3-199.1s186.7,34.3,256.6,91.4Z"/>
    </g>
    <g id="note-B2">
      <path class="st0" d="M2136.5,1360l103.2,163.8c-67.5,50-151,79.6-241.4,79.6-224.2,0-405.9-181.7-405.9-405.9s20.6-146.3,56.6-206.9l164.4,79.9c132.6,64.5,244.5,164.8,323.2,289.5Z"/>
    </g>
    <g id="label-Ab2">
      <g>
        <path d="M2236.1,1993.3c.2.4,0,.8-.6.8h-12.9c-.6,0-1.1-.3-1.4-.8l-2-6.9h-12.3l-2,6.9c-.3.5-.8.8-1.4.8h-12.9c-.5,0-.8-.5-.6-.8l14.8-43.4c.2-.4.9-.8,1.6-.8h13.3c.7,0,1.4.5,1.6.8l14.8,43.4h0ZM2213.1,1964.7l-3.5,12.4h7.1l-3.5-12.4h0Z"/>
        <path d="M2250.3,1957.6c1.5-1.2,3.7-1.9,6-1.9,7.7,0,12.9,5.7,12.9,14.2s-5.2,14.2-12.9,14.2-6.4-1.3-8.3-3.2l-.7,1.8c-.2.4-.4.7-.8.7h-5.5c-.4,0-.7-.3-.7-.7v-34.1c0-.3.3-.7.7-.7h8.6c.4,0,.7.3.7.7v9.1h0ZM2250.3,1973c.6,1.6,2.2,2.7,3.9,2.7,2.7,0,4.5-2.4,4.5-5.9s-1.8-5.7-4.5-5.7-3.3,1.1-3.9,2.7v6.2h0Z"/>
      </g>
    </g>
    <g id="label-C#2">
      <g>
        <path d="M1917.8,2219.7c.2.5,0,.9-.6,1.2-3.8,2.4-8.9,3.8-13.7,3.8-13.5,0-22.5-9.4-22.5-23.5s9-23.5,22.5-23.5,9.9,1.4,13.7,3.8c.5.3.8.7.6,1.2l-4.3,9.1c-.3.6-.7.8-1.2.5-2.4-1.4-4.8-1.8-7.6-1.8-5.9,0-9.8,4.3-9.8,10.8s3.9,10.8,9.8,10.8,5.2-.5,7.6-1.8c.5-.3,1,0,1.2.5l4.3,9.1v-.2h0Z"/>
        <path d="M1945.5,2204.5h5c.5,0,.8.5.8.9v6.2c0,.5-.4.9-.8.9h-7.6l-1.6,5.4c0,.4-.7.8-1.1.8h-6.4c-.5,0-.7-.4-.6-.8l1.7-5.4h-2.5l-1.7,5.4c0,.4-.7.8-1.1.8h-6.3c-.5,0-.7-.4-.6-.8l1.6-5.4h-1.9c-.5,0-.8-.4-.8-.9v-6.2c0-.5.3-.9.8-.9h4.4l.7-2.2h-5.1c-.5,0-.8-.4-.8-.8v-6.3c0-.5.3-1,.8-1h7.6l1.6-5.4c0-.4.7-.8,1.1-.8h6.4c.5,0,.7.4.6.8l-1.6,5.4h2.5l1.7-5.4c0-.4.7-.8,1.1-.8h6.3c.5,0,.8.4.7.8l-1.7,5.4h1.9c.5,0,.8.5.8,1v6.3c0,.5-.4.8-.8.8h-4.4l-.7,2.2h0ZM1935.6,2202.3l-.7,2.2h2.5l.7-2.2h-2.5Z"/>
      </g>
    </g>
    <g id="label-C#3">
      <g>
        <path d="M1909.2,1828c.2.5,0,.9-.6,1.2-3.8,2.4-8.9,3.8-13.7,3.8-13.5,0-22.5-9.4-22.5-23.5s9-23.5,22.5-23.5,9.9,1.4,13.7,3.8c.5.3.8.7.6,1.2l-4.3,9.1c-.3.6-.7.8-1.2.5-2.4-1.4-4.8-1.8-7.6-1.8-5.9,0-9.8,4.3-9.8,10.8s3.9,10.8,9.8,10.8,5.2-.5,7.6-1.8c.5-.3,1,0,1.2.5l4.3,9.1v-.2h0Z"/>
        <path d="M1936.9,1812.8h5c.5,0,.8.5.8.9v6.2c0,.5-.4.9-.8.9h-7.6l-1.6,5.4c0,.4-.7.8-1.1.8h-6.4c-.5,0-.7-.4-.6-.8l1.7-5.4h-2.5l-1.7,5.4c0,.4-.7.8-1.1.8h-6.3c-.5,0-.7-.4-.6-.8l1.6-5.4h-1.9c-.5,0-.8-.4-.8-.9v-6.2c0-.5.3-.9.8-.9h4.4l.7-2.2h-5.1c-.5,0-.8-.4-.8-.8v-6.3c0-.5.3-1,.8-1h7.6l1.6-5.4c0-.4.7-.8,1.1-.8h6.4c.5,0,.7.4.6.8l-1.6,5.4h2.5l1.7-5.4c0-.4.7-.8,1.1-.8h6.3c.5,0,.8.4.7.8l-1.7,5.4h1.9c.5,0,.8.5.8,1v6.3c0,.5-.4.8-.8.8h-4.4l-.7,2.2h0ZM1927,1810.6l-.7,2.2h2.5l.7-2.2h-2.5Z"/>
      </g>
    </g>
    <g id="note-C#3">
      <path class="st0" d="M2178.8,1669.2l-88.4,162.2c-51.9,95.3-159.2,146.4-265.9,126.8l-215.8-39.7c49.4-168.5,205.1-291.5,389.5-291.5s126.1,15.2,180.5,42.2Z"/>
    </g>
    <g id="note-Ab2">
      <path class="st0" d="M2404.2,2032.8c0,93.4-31.5,179.4-84.5,248l-207.2-189.8c-64.1-58.7-79.9-153.5-38.4-229.9l104.4-192.1c133.8,66.4,225.8,204.4,225.8,363.8Z"/>
    </g>
    <g id="note-C#2">
      <path class="st0" d="M2182.6,2155.1l137.2,125.6c-74.2,96.1-190.6,158-321.5,158-224.2,0-405.9-181.7-405.9-405.9s5.7-77.9,16.2-114.1l155.8,28.5c156.1,28.6,301,100.6,418.1,207.8Z"/>
    </g>
    <g id="label-Eb2">
      <g>
        <path d="M428.2,2251.6c.5,0,1,.4,1,.8v10c0,.5-.5.9-1,.9h-30.4c-.5,0-.9-.5-1-1v-43.2c0-.6.3-.9.9-.9h29.7c.6,0,1,.5,1,.9v9.9c0,.6-.5,1-1,1h-17v5.2h13.8c.6,0,.9.5.8.8l-.9,9.1c0,.4-.5.8-1.1.8h-12.7v5.6h17.9Z"/>
        <path d="M445.7,2226.8c1.5-1.2,3.7-1.9,6-1.9,7.7,0,12.9,5.7,12.9,14.2s-5.2,14.2-12.9,14.2-6.4-1.3-8.3-3.2l-.7,1.8c-.2.4-.4.7-.8.7h-5.5c-.4,0-.7-.3-.7-.7v-34.1c0-.3.3-.7.7-.7h8.6c.4,0,.7.3.7.7v9.1h0ZM445.7,2242.3c.6,1.6,2.2,2.7,3.9,2.7,2.7,0,4.5-2.4,4.5-5.9s-1.8-5.7-4.5-5.7-3.3,1.1-3.9,2.7v6.2h0Z"/>
      </g>
    </g>
  </g>
</svg>