<?xml version="1.0" encoding="UTF-8"?>
<svg xmlns="http://www.w3.org/2000/svg" version="1.1" viewBox="0 0 1720.9 865.3">
  <!-- Generator: Adobe Illustrator 30.3.0, SVG Export Plug-In . SVG Version: 2.1.3 Build 182)  -->
  <defs>
    <style>
      .st0 {
        fill: none;
        stroke: #000;
        stroke-miterlimit: 10;
        stroke-width: 6px;
      }
    </style>
  </defs>
  <g id="Base">
    <circle class="st0" cx="1279.3" cy="432.6" r="408.1"/>
    <circle class="st0" cx="441.6" cy="432.6" r="408.1"/>
  </g>
  <g id="label-Bb3">
    <g>
      <path d="M706.3,555.9c7.9,0,13,4.7,13,11.7s-2.1,7.5-5.3,8.4c3.8.9,6.2,4.6,6.2,9.5s-5.2,11.7-13,11.7h-19c-.5,0-.8-.5-.8-.8v-39.6c0-.5.4-.9.8-.9h18.1ZM703.5,572.2c1.8,0,3-1.1,3-2.8s-1.2-2.8-3-2.8h-3.8v5.5h3.8ZM704.6,586.6c1.7,0,2.9-1.1,2.9-2.8s-1.2-2.8-2.9-2.8h-4.9v5.8h4.9Z"/>
      <path d="M735.5,563.7c1.4-1.1,3.4-1.7,5.5-1.7,7.1,0,11.8,5.2,11.8,13s-4.8,13-11.8,13-5.9-1.2-7.6-2.9l-.6,1.7c-.2.4-.4.6-.7.6h-5c-.4,0-.6-.3-.6-.6v-31.3c0-.3.3-.6.6-.6h7.9c.4,0,.6.3.6.6v8.3h0ZM735.5,577.9c.6,1.5,2,2.5,3.6,2.5,2.5,0,4.1-2.2,4.1-5.4s-1.7-5.2-4.1-5.2-3,1-3.6,2.5v5.7h0Z"/>
    </g>
  </g>
  <g id="label-A3">
    <path d="M1013.8,570.8c.2.3,0,.7-.5.7h-11.3c-.5,0-1-.3-1.2-.7l-1.7-6h-10.8l-1.7,6c-.2.5-.7.7-1.2.7h-11.3c-.5,0-.7-.4-.5-.7l12.9-38c.2-.3.8-.7,1.4-.7h11.7c.6,0,1.2.4,1.4.7l12.9,38ZM993.6,545.7l-3.1,10.9h6.2l-3.1-10.9Z"/>
  </g>
  <g id="label-Bb4">
    <g>
      <path d="M552.8,698.6c7.9,0,13,4.7,13,11.7s-2.1,7.5-5.3,8.4c3.8.9,6.2,4.6,6.2,9.5s-5.2,11.7-13,11.7h-19c-.5,0-.8-.5-.8-.8v-39.6c0-.5.4-.9.8-.9h18.1ZM550,714.9c1.8,0,3-1.1,3-2.8s-1.2-2.8-3-2.8h-3.8v5.5h3.8ZM551.1,729.3c1.7,0,2.9-1.1,2.9-2.8s-1.2-2.8-2.9-2.8h-4.9v5.8h4.9Z"/>
      <path d="M582,706.4c1.4-1.1,3.4-1.7,5.5-1.7,7.1,0,11.8,5.2,11.8,13s-4.8,13-11.8,13-5.9-1.2-7.6-2.9l-.6,1.7c-.2.4-.4.6-.7.6h-5c-.4,0-.6-.3-.6-.6v-31.3c0-.3.3-.6.6-.6h7.9c.4,0,.6.3.6.6v8.3h0ZM582,720.7c.6,1.5,2,2.5,3.6,2.5,2.5,0,4.1-2.2,4.1-5.4s-1.7-5.2-4.1-5.2-3,1-3.6,2.5v5.7h0Z"/>
    </g>
  </g>
  <g id="label-B3">
    <path d="M1386.4,681.2c7.5,0,12.5,4.5,12.5,11.2s-2,7.2-5.1,8.1c3.6.9,6,4.4,6,9.1s-5,11.2-12.4,11.2h-18.2c-.5,0-.8-.4-.8-.8v-37.9c0-.4.3-.9.8-.9h17.2ZM1383.8,696.7c1.7,0,2.9-1,2.9-2.6s-1.1-2.6-2.9-2.6h-3.6v5.3h3.6ZM1384.8,710.4c1.7,0,2.8-1.1,2.8-2.7s-1.1-2.7-2.8-2.7h-4.6v5.5h4.6Z"/>
  </g>
  <g id="label-F#3">
    <g>
      <path d="M332.6,663.6c.5,0,.9.4.9.8v8.6c0,.5-.3.9-.9.9h-14.5v5.2h11.5c.5,0,.8.4.7.7l-.8,8c0,.3-.5.7-1,.7h-10.5v13.7c0,.4-.4.8-.9.8h-10.1c-.5,0-.8-.5-.8-.9v-37.9c0-.4.3-.8.8-.8h25.5Z"/>
      <path d="M356.9,690.7h4.4c.4,0,.7.4.7.8v5.4c0,.5-.3.8-.7.8h-6.6l-1.4,4.7c-.1.3-.6.7-1,.7h-5.6c-.4,0-.6-.3-.5-.7l1.5-4.7h-2.2l-1.5,4.7c-.1.3-.6.7-1,.7h-5.6c-.4,0-.6-.3-.5-.7l1.4-4.7h-1.7c-.5,0-.7-.3-.7-.8v-5.4c0-.4.3-.8.7-.8h3.8l.6-1.9h-4.5c-.5,0-.7-.3-.7-.7v-5.5c0-.4.3-.9.7-.9h6.6l1.4-4.7c.1-.3.6-.7,1-.7h5.6c.4,0,.6.3.5.7l-1.4,4.7h2.2l1.5-4.7c.1-.3.6-.7,1-.7h5.6c.5,0,.7.3.6.7l-1.5,4.7h1.7c.4,0,.7.5.7.9v5.5c0,.4-.3.7-.7.7h-3.8l-.6,1.9ZM348.2,688.7l-.6,1.9h2.2l.6-1.9h-2.2Z"/>
    </g>
  </g>
  <g id="label-G3">
    <path d="M1282.5,138.8c.5,0,.9.4.9.8v18.2c0,.5-.3,1-.7,1.4-3.4,2.9-8.7,4.6-14.2,4.6-12.4,0-20.6-8.2-20.6-20.6s8.2-20.6,20.6-20.6,8.7,1.3,12,3.3c.5.2.6.7.5,1l-2.9,8.4c-.2.4-.6.6-1.1.5-2.3-1.3-5.4-2-8.2-2-5.3,0-8.8,3.8-8.8,9.4s3.6,9.5,8.8,9.5,3.5-.4,4.2-1.1v-3.3h-5.3c-.5,0-.9-.2-.9-.6l-.7-7.9c0-.6.3-1,.9-1h15.5ZM1273.3,150.8v.2-.2Z"/>
  </g>
  <g id="label-G#3">
    <g>
      <path d="M324.7,178.5c.5,0,.9.4.9.8v18.2c0,.5-.3,1-.7,1.4-3.4,2.9-8.7,4.6-14.2,4.6-12.4,0-20.6-8.2-20.6-20.6s8.2-20.6,20.6-20.6,8.7,1.3,12,3.3c.5.2.6.7.5,1l-2.9,8.4c-.2.4-.6.6-1.1.5-2.3-1.3-5.4-2-8.2-2-5.3,0-8.8,3.8-8.8,9.4s3.6,9.5,8.8,9.5,3.5-.4,4.2-1.1v-3.3h-5.3c-.5,0-.9-.2-.9-.6l-.7-7.9c0-.6.3-1,.9-1h15.5ZM315.5,190.5v.2-.2Z"/>
      <path d="M350.4,190.3h4.4c.4,0,.7.4.7.8v5.4c0,.5-.3.8-.7.8h-6.6l-1.4,4.7c-.1.3-.6.7-1,.7h-5.6c-.4,0-.6-.3-.5-.7l1.5-4.7h-2.2l-1.5,4.7c-.1.3-.6.7-1,.7h-5.6c-.4,0-.6-.3-.5-.7l1.4-4.7h-1.7c-.5,0-.7-.3-.7-.8v-5.4c0-.4.3-.8.7-.8h3.8l.6-1.9h-4.5c-.5,0-.7-.3-.7-.7v-5.5c0-.4.3-.9.7-.9h6.6l1.4-4.7c.1-.3.6-.7,1-.7h5.6c.4,0,.6.3.5.7l-1.4,4.7h2.2l1.5-4.7c.1-.3.6-.7,1-.7h5.6c.5,0,.7.3.6.7l-1.5,4.7h1.7c.4,0,.7.5.7.9v5.5c0,.4-.3.7-.7.7h-3.8l-.6,1.9ZM341.7,188.4l-.6,1.9h2.2l.6-1.9h-2.2Z"/>
    </g>
  </g>
  <g id="label-A4">
    <path d="M986.3,391.6c.2.3,0,.7-.5.7h-11.3c-.5,0-1-.3-1.2-.7l-1.7-6h-10.8l-1.7,6c-.2.5-.7.7-1.2.7h-11.3c-.5,0-.7-.4-.5-.7l12.9-38c.2-.3.8-.7,1.4-.7h11.7c.6,0,1.2.4,1.4.7l12.9,38ZM966.1,366.5l-3.1,10.9h6.2l-3.1-10.9Z"/>
  </g>
  <g id="label-B4">
    <path d="M1555.9,544.4c7.5,0,12.5,4.5,12.5,11.2s-2,7.2-5.1,8.1c3.6.9,6,4.4,6,9.1s-5,11.2-12.4,11.2h-18.2c-.5,0-.8-.4-.8-.8v-37.9c0-.4.3-.9.8-.9h17.2ZM1553.2,559.9c1.7,0,2.9-1,2.9-2.6s-1.1-2.6-2.9-2.6h-3.6v5.3h3.6ZM1554.3,573.7c1.7,0,2.8-1.1,2.8-2.7s-1.1-2.7-2.8-2.7h-4.6v5.5h4.6Z"/>
  </g>
  <g id="label-C4">
    <path d="M689.7,246.7c.2.4,0,.8-.5,1-3.3,2.1-7.8,3.3-12,3.3-11.8,0-19.7-8.2-19.7-20.6s7.9-20.6,19.7-20.6,8.7,1.3,12,3.3c.5.2.7.6.5,1l-3.8,8c-.2.5-.6.7-1.1.5-2.1-1.2-4.2-1.6-6.6-1.6-5.2,0-8.6,3.8-8.6,9.5s3.4,9.5,8.6,9.5,4.5-.4,6.6-1.6c.5-.2.9,0,1.1.5l3.8,8Z"/>
  </g>
  <g id="label-C#4">
    <g>
      <path d="M1051.8,241.8c.2.4,0,.8-.5,1-3.3,2.1-7.8,3.3-12,3.3-11.8,0-19.7-8.2-19.7-20.6s7.9-20.6,19.7-20.6,8.7,1.3,12,3.3c.5.2.7.6.5,1l-3.8,8c-.2.5-.6.7-1.1.5-2.1-1.2-4.2-1.6-6.6-1.6-5.2,0-8.6,3.8-8.6,9.5s3.4,9.5,8.6,9.5,4.5-.4,6.6-1.6c.5-.2.9,0,1.1.5l3.8,8Z"/>
      <path d="M1076.1,232.9h4.4c.4,0,.7.4.7.8v5.4c0,.5-.3.8-.7.8h-6.6l-1.4,4.7c-.1.3-.6.7-1,.7h-5.6c-.4,0-.6-.3-.5-.7l1.5-4.7h-2.2l-1.5,4.7c-.1.3-.6.7-1,.7h-5.6c-.4,0-.6-.3-.5-.7l1.4-4.7h-1.7c-.5,0-.7-.3-.7-.8v-5.4c0-.4.3-.8.7-.8h3.8l.6-1.9h-4.5c-.5,0-.7-.3-.7-.7v-5.5c0-.4.3-.9.7-.9h6.6l1.4-4.7c.1-.3.6-.7,1-.7h5.6c.4,0,.6.3.5.7l-1.4,4.7h2.2l1.5-4.7c.1-.3.6-.7,1-.7h5.6c.5,0,.7.3.6.7l-1.5,4.7h1.7c.4,0,.7.5.7.9v5.5c0,.4-.3.7-.7.7h-3.8l-.6,1.9ZM1067.4,230.9l-.6,1.9h2.2l.6-1.9h-2.2Z"/>
    </g>
  </g>
  <g id="label-D4">
    <path d="M172.4,331.6c12.1,0,20.2,7.8,20.2,19.8s-8.1,19.8-20.2,19.8h-13.3c-.4,0-.8-.4-.8-.9v-37.8c0-.5.4-.9.8-.9h13.3ZM173.1,360.8c4.4,0,7.4-3.8,7.4-9.5s-3-9.5-7.4-9.5h-3v18.9h3Z"/>
  </g>
  <g id="label-Eb4">
    <g>
      <path d="M1552.3,401.9c.5,0,.9.4.9.7v9.1c0,.5-.5.8-.9.8h-27.6c-.5,0-.8-.5-.9-.9v-39.2c0-.5.3-.8.8-.8h27c.5,0,.9.5.9.8v9c0,.5-.5.9-.9.9h-15.4v4.7h12.5c.5,0,.8.5.7.7l-.8,8.3c0,.4-.5.7-1,.7h-11.5v5.1h16.3Z"/>
      <path d="M1568.2,379.4c1.4-1.1,3.4-1.7,5.4-1.7,7,0,11.7,5.2,11.7,12.9s-4.7,12.9-11.7,12.9-5.8-1.2-7.5-2.9l-.6,1.6c-.2.4-.4.6-.7.6h-5c-.4,0-.6-.3-.6-.6v-31c0-.3.3-.6.6-.6h7.8c.4,0,.6.3.6.6v8.3h0ZM1568.2,393.5c.5,1.5,2,2.5,3.5,2.5,2.5,0,4.1-2.2,4.1-5.4s-1.6-5.2-4.1-5.2-3,1-3.5,2.5v5.6h0Z"/>
    </g>
  </g>
  <g id="label-E4">
    <path d="M772.1,400.7c.5,0,.9.3.9.7v8.8c0,.4-.4.8-.9.8h-26.6c-.4,0-.8-.5-.9-.9v-37.9c0-.5.3-.8.8-.8h26.1c.5,0,.9.4.9.8v8.6c0,.5-.4.9-.9.9h-14.9v4.5h12.1c.5,0,.8.4.7.7l-.8,8c0,.3-.5.7-1,.7h-11.1v4.9h15.6Z"/>
  </g>
  <g id="label-F4">
    <path d="M1161.4,687.2c.5,0,.9.4.9.8v8.6c0,.5-.3.9-.9.9h-14.5v5.2h11.5c.5,0,.8.4.7.7l-.8,8c0,.3-.5.7-1,.7h-10.5v13.7c0,.4-.4.8-.9.8h-10.1c-.5,0-.8-.5-.8-.9v-37.9c0-.4.3-.8.8-.8h25.5Z"/>
  </g>
  <g id="label-F#4">
    <g>
      <path d="M168,508.5c.5,0,.9.4.9.8v8.6c0,.5-.3.9-.9.9h-14.5v5.2h11.5c.5,0,.8.4.7.7l-.8,8c0,.3-.5.7-1,.7h-10.5v13.7c0,.4-.4.8-.9.8h-10.1c-.5,0-.8-.5-.8-.9v-37.9c0-.4.3-.8.8-.8h25.5Z"/>
      <path d="M192.3,535.6h4.4c.4,0,.7.4.7.8v5.4c0,.5-.3.8-.7.8h-6.6l-1.4,4.7c-.1.3-.6.7-1,.7h-5.6c-.4,0-.6-.3-.5-.7l1.5-4.7h-2.2l-1.5,4.7c-.1.3-.6.7-1,.7h-5.6c-.4,0-.6-.3-.5-.7l1.4-4.7h-1.7c-.5,0-.7-.3-.7-.8v-5.4c0-.4.3-.8.7-.8h3.8l.6-1.9h-4.5c-.5,0-.7-.3-.7-.7v-5.5c0-.4.3-.9.7-.9h6.6l1.4-4.7c.1-.3.6-.7,1-.7h5.6c.4,0,.6.3.5.7l-1.4,4.7h2.2l1.5-4.7c.1-.3.6-.7,1-.7h5.6c.5,0,.7.3.6.7l-1.5,4.7h1.7c.4,0,.7.5.7.9v5.5c0,.4-.3.7-.7.7h-3.8l-.6,1.9ZM183.6,533.7l-.6,1.9h2.2l.6-1.9h-2.2Z"/>
    </g>
  </g>
  <g id="label-G4">
    <path d="M1494.8,214c.5,0,.9.4.9.8v18.2c0,.5-.3,1-.7,1.4-3.4,2.9-8.7,4.6-14.2,4.6-12.4,0-20.6-8.2-20.6-20.6s8.2-20.6,20.6-20.6,8.7,1.3,12,3.3c.5.2.6.7.5,1l-2.9,8.4c-.2.4-.6.6-1.1.5-2.3-1.3-5.4-2-8.2-2-5.3,0-8.8,3.8-8.8,9.4s3.6,9.5,8.8,9.5,3.5-.4,4.2-1.1v-3.3h-5.3c-.5,0-.9-.2-.9-.6l-.7-7.9c0-.6.3-1,.9-1h15.5ZM1485.7,226v.2-.2Z"/>
  </g>
  <g id="label-G#4">
    <g>
      <path d="M532.2,138.8c.5,0,.9.4.9.8v18.2c0,.5-.3,1-.7,1.4-3.4,2.9-8.7,4.6-14.2,4.6-12.4,0-20.6-8.2-20.6-20.6s8.2-20.6,20.6-20.6,8.7,1.3,12,3.3c.5.2.6.7.5,1l-2.9,8.4c-.2.4-.6.6-1.1.5-2.3-1.3-5.4-2-8.2-2-5.3,0-8.8,3.8-8.8,9.4s3.6,9.5,8.8,9.5,3.5-.4,4.2-1.1v-3.3h-5.3c-.5,0-.9-.2-.9-.6l-.7-7.9c0-.6.3-1,.9-1h15.5ZM523,150.8v.2-.2Z"/>
      <path d="M557.9,150.6h4.4c.4,0,.7.4.7.8v5.4c0,.5-.3.8-.7.8h-6.6l-1.4,4.7c-.1.3-.6.7-1,.7h-5.6c-.4,0-.6-.3-.5-.7l1.5-4.7h-2.2l-1.5,4.7c-.1.3-.6.7-1,.7h-5.6c-.4,0-.6-.3-.5-.7l1.4-4.7h-1.7c-.5,0-.7-.3-.7-.8v-5.4c0-.4.3-.8.7-.8h3.8l.6-1.9h-4.5c-.5,0-.7-.3-.7-.7v-5.5c0-.4.3-.9.7-.9h6.6l1.4-4.7c.1-.3.6-.7,1-.7h5.6c.4,0,.6.3.5.7l-1.4,4.7h2.2l1.5-4.7c.1-.3.6-.7,1-.7h5.6c.5,0,.7.3.6.7l-1.5,4.7h1.7c.4,0,.7.5.7.9v5.5c0,.4-.3.7-.7.7h-3.8l-.6,1.9ZM549.2,148.6l-.6,1.9h2.2l.6-1.9h-2.2Z"/>
    </g>
  </g>
  <g id="label-A5">
    <path d="M1082.7,456.7c.1.3,0,.6-.4.6h-8.5c-.4,0-.7-.2-.9-.6l-1.3-4.5h-8.1l-1.3,4.5c-.2.3-.5.6-.9.6h-8.5c-.3,0-.5-.3-.4-.6l9.7-28.5c.1-.3.6-.6,1-.6h8.8c.4,0,.9.3,1,.6l9.7,28.5ZM1067.6,437.9l-2.3,8.2h4.6l-2.3-8.2Z"/>
  </g>
  <g id="label-Bb5">
    <g>
      <path d="M520.1,569c5.8,0,9.6,3.4,9.6,8.6s-1.6,5.5-3.9,6.2c2.8.7,4.6,3.4,4.6,7s-3.8,8.6-9.6,8.6h-14c-.3,0-.6-.3-.6-.6v-29.1c0-.3.3-.7.6-.7h13.3ZM518,580.9c1.3,0,2.2-.8,2.2-2s-.9-2-2.2-2h-2.8v4h2.8ZM518.8,591.5c1.3,0,2.2-.8,2.2-2.1s-.9-2.1-2.2-2.1h-3.6v4.2h3.6Z"/>
      <path d="M541.6,574.7c1-.8,2.5-1.3,4-1.3,5.2,0,8.7,3.8,8.7,9.6s-3.5,9.6-8.7,9.6-4.3-.9-5.6-2.2l-.5,1.2c-.1.3-.3.5-.5.5h-3.7c-.3,0-.5-.2-.5-.5v-23c0-.2.2-.5.5-.5h5.8c.3,0,.5.2.5.5v6.1h0ZM541.6,585.2c.4,1.1,1.5,1.8,2.6,1.8,1.8,0,3-1.6,3-4s-1.2-3.8-3-3.8-2.2.7-2.6,1.8v4.2h0Z"/>
    </g>
  </g>
  <g id="label-B5">
    <path d="M1379.7,530.7c5.6,0,9.4,3.4,9.4,8.4s-1.5,5.4-3.8,6.1c2.7.7,4.5,3.3,4.5,6.8s-3.7,8.4-9.3,8.4h-13.6c-.3,0-.6-.3-.6-.6v-28.4c0-.3.3-.6.6-.6h12.9ZM1377.7,542.3c1.3,0,2.1-.8,2.1-2s-.9-2-2.1-2h-2.7v4h2.7ZM1378.5,552.7c1.2,0,2.1-.8,2.1-2.1s-.9-2.1-2.1-2.1h-3.5v4.1h3.5Z"/>
  </g>
  <g id="label-C5">
    <path d="M592.3,385.2c.1.3,0,.6-.4.8-2.5,1.5-5.8,2.5-9,2.5-8.9,0-14.8-6.2-14.8-15.5s5.9-15.5,14.8-15.5,6.5.9,9,2.5c.3.2.5.5.4.8l-2.8,6c-.2.4-.5.5-.8.3-1.6-.9-3.1-1.2-5-1.2-3.9,0-6.4,2.8-6.4,7.1s2.6,7.1,6.4,7.1,3.4-.3,5-1.2c.3-.2.6,0,.8.3l2.8,6Z"/>
  </g>
  <g id="label-C#5">
    <g>
      <path d="M1153.4,374.8c.1.3,0,.6-.4.8-2.5,1.5-5.8,2.5-9,2.5-8.9,0-14.8-6.2-14.8-15.5s5.9-15.5,14.8-15.5,6.5.9,9,2.5c.3.2.5.5.4.8l-2.8,6c-.2.4-.5.5-.8.3-1.6-.9-3.1-1.2-5-1.2-3.9,0-6.4,2.8-6.4,7.1s2.6,7.1,6.4,7.1,3.4-.3,5-1.2c.3-.2.6,0,.8.3l2.8,6Z"/>
      <path d="M1171.7,368.1h3.3c.3,0,.6.3.6.6v4.1c0,.3-.3.6-.6.6h-5l-1.1,3.5c0,.3-.4.5-.7.5h-4.2c-.3,0-.5-.3-.4-.5l1.1-3.5h-1.7l-1.1,3.5c0,.3-.4.5-.7.5h-4.2c-.3,0-.5-.3-.4-.5l1.1-3.5h-1.2c-.3,0-.6-.3-.6-.6v-4.1c0-.3.2-.6.6-.6h2.9l.5-1.5h-3.4c-.3,0-.6-.3-.6-.6v-4.1c0-.3.2-.6.6-.6h5l1.1-3.5c0-.3.4-.5.7-.5h4.2c.3,0,.5.3.4.5l-1.1,3.5h1.6l1.1-3.5c0-.3.4-.5.7-.5h4.2c.3,0,.5.3.4.5l-1.1,3.5h1.2c.3,0,.6.3.6.6v4.1c0,.3-.3.6-.6.6h-2.9l-.4,1.5ZM1165.1,366.7l-.5,1.5h1.7l.4-1.5h-1.6Z"/>
    </g>
  </g>
  <g id="label-Eb5">
    <g>
      <path d="M1350.7,441.3c.3,0,.7.3.7.5v6.5c0,.3-.3.6-.7.6h-19.9c-.3,0-.6-.3-.7-.7v-28.3c0-.4.2-.6.6-.6h19.5c.4,0,.7.3.7.6v6.5c0,.4-.3.7-.7.7h-11.1v3.4h9c.4,0,.6.3.5.5l-.6,6c0,.3-.3.5-.7.5h-8.3v3.7h11.7Z"/>
      <path d="M1362.1,425.1c1-.8,2.4-1.2,3.9-1.2,5,0,8.4,3.7,8.4,9.3s-3.4,9.3-8.4,9.3-4.2-.9-5.4-2.1l-.5,1.2c-.1.3-.3.5-.5.5h-3.6c-.3,0-.5-.2-.5-.5v-22.3c0-.2.2-.5.5-.5h5.6c.3,0,.5.2.5.5v6h0ZM1362.1,435.2c.4,1,1.4,1.8,2.6,1.8,1.8,0,2.9-1.6,2.9-3.9s-1.2-3.7-2.9-3.7-2.2.7-2.6,1.8v4.1h0Z"/>
    </g>
  </g>
  <g id="label-D5">
    <path d="M383.4,349.8c9.1,0,15.2,5.9,15.2,14.8s-6.1,14.8-15.2,14.8h-10c-.3,0-.6-.3-.6-.6v-28.4c0-.3.3-.6.6-.6h10ZM383.9,371.7c3.3,0,5.5-2.8,5.5-7.1s-2.2-7.1-5.5-7.1h-2.2v14.2h2.2Z"/>
  </g>
  <g id="label-E5">
    <path d="M645.4,484.1c.3,0,.6.3.6.6v6.6c0,.3-.3.6-.6.6h-20c-.3,0-.6-.3-.7-.6v-28.4c0-.4.2-.6.6-.6h19.5c.4,0,.7.3.7.6v6.5c0,.4-.3.6-.7.6h-11.2v3.4h9.1c.4,0,.6.3.6.6l-.6,6c0,.3-.3.6-.7.6h-8.3v3.7h11.7Z"/>
  </g>
  <g id="label-F5">
    <path d="M1203.8,560.9c.4,0,.6.3.6.6v6.5c0,.4-.3.6-.6.6h-10.9v3.9h8.6c.4,0,.6.3.6.6l-.6,6c0,.3-.3.6-.7.6h-7.9v10.3c0,.3-.3.6-.6.6h-7.6c-.3,0-.6-.3-.6-.6v-28.4c0-.3.3-.6.6-.6h19.2Z"/>
  </g>
  <g id="label-F#5">
    <g>
      <path d="M351,506.4c.4,0,.6.3.6.6v6.5c0,.4-.3.6-.6.6h-10.9v3.9h8.6c.4,0,.6.3.6.6l-.6,6c0,.3-.3.6-.7.6h-7.9v10.3c0,.3-.3.6-.6.6h-7.6c-.3,0-.6-.3-.6-.6v-28.4c0-.3.3-.6.6-.6h19.2Z"/>
      <path d="M369.2,526.7h3.3c.3,0,.6.3.6.6v4.1c0,.3-.3.6-.6.6h-5l-1.1,3.5c0,.3-.4.5-.7.5h-4.2c-.3,0-.5-.3-.4-.5l1.1-3.5h-1.7l-1.1,3.5c0,.3-.4.5-.7.5h-4.2c-.3,0-.5-.3-.4-.5l1.1-3.5h-1.2c-.3,0-.6-.3-.6-.6v-4.1c0-.3.2-.6.6-.6h2.9l.5-1.5h-3.4c-.3,0-.6-.3-.6-.6v-4.1c0-.3.2-.6.6-.6h5l1.1-3.5c0-.3.4-.5.7-.5h4.2c.3,0,.5.3.4.5l-1.1,3.5h1.6l1.1-3.5c0-.3.4-.5.7-.5h4.2c.3,0,.5.3.4.5l-1.1,3.5h1.2c.3,0,.6.3.6.6v4.1c0,.3-.3.6-.6.6h-2.9l-.4,1.5ZM362.7,525.2l-.5,1.5h1.7l.4-1.5h-1.6Z"/>
    </g>
  </g>
  <g id="label-G5">
    <path d="M1340,304.6c.3,0,.6.3.6.6v13.7c0,.4-.2.8-.5,1-2.6,2.2-6.5,3.5-10.7,3.5-9.3,0-15.5-6.2-15.5-15.5s6.2-15.5,15.5-15.5,6.5.9,9,2.5c.3.2.5.5.4.8l-2.1,6.3c-.1.3-.4.4-.8.3-1.8-.9-4-1.5-6.2-1.5-4,0-6.6,2.8-6.6,7s2.7,7.1,6.6,7.1,2.7-.3,3.1-.8v-2.5h-4c-.4,0-.6-.2-.7-.5l-.6-5.9c0-.4.2-.7.7-.7h11.6ZM1333.1,313.5v.2-.2Z"/>
  </g>
  <g id="label-G#5">
    <g>
      <path d="M493.8,272.2c.3,0,.6.3.6.6v13.7c0,.4-.2.8-.5,1-2.6,2.2-6.5,3.5-10.7,3.5-9.3,0-15.5-6.2-15.5-15.5s6.2-15.5,15.5-15.5,6.5.9,9,2.5c.3.2.5.5.4.8l-2.1,6.3c-.1.3-.4.4-.8.3-1.8-.9-4-1.5-6.2-1.5-4,0-6.6,2.8-6.6,7s2.7,7.1,6.6,7.1,2.7-.3,3.1-.8v-2.5h-4c-.4,0-.6-.2-.7-.5l-.6-5.9c0-.4.2-.7.7-.7h11.6ZM486.9,281.2v.2-.2Z"/>
      <path d="M513.1,281.1h3.3c.3,0,.6.3.6.6v4.1c0,.3-.3.6-.6.6h-5l-1.1,3.5c0,.3-.4.5-.7.5h-4.2c-.3,0-.5-.3-.4-.5l1.1-3.5h-1.7l-1.1,3.5c0,.3-.4.5-.7.5h-4.2c-.3,0-.5-.3-.4-.5l1.1-3.5h-1.2c-.3,0-.6-.3-.6-.6v-4.1c0-.3.2-.6.6-.6h2.9l.5-1.5h-3.4c-.3,0-.6-.3-.6-.6v-4.1c0-.3.2-.6.6-.6h5l1.1-3.5c0-.3.4-.5.7-.5h4.2c.3,0,.5.3.4.5l-1.1,3.5h1.6l1.1-3.5c0-.3.4-.5.7-.5h4.2c.3,0,.5.3.4.5l-1.1,3.5h1.2c.3,0,.6.3.6.6v4.1c0,.3-.3.6-.6.6h-2.9l-.4,1.5ZM506.5,279.6l-.5,1.5h1.7l.4-1.5h-1.6Z"/>
    </g>
  </g>
  <g id="label-C6">
    <path d="M498.3,479.2c.1.3,0,.6-.4.8-2.5,1.5-5.8,2.5-9,2.5-8.9,0-14.8-6.2-14.8-15.5s5.9-15.5,14.8-15.5,6.5.9,9,2.5c.3.2.5.5.4.8l-2.8,6c-.2.4-.5.5-.8.3-1.6-.9-3.1-1.2-5-1.2-3.9,0-6.4,2.8-6.4,7.1s2.6,7.1,6.4,7.1,3.4-.3,5-1.2c.3-.2.6,0,.8.3l2.8,6Z"/>
  </g>
  <g id="label-C#6">
    <g>
      <path d="M1227.4,470.1c.1.3,0,.6-.4.8-2.5,1.5-5.8,2.5-9,2.5-8.9,0-14.8-6.2-14.8-15.5s5.9-15.5,14.8-15.5,6.5.9,9,2.5c.3.2.5.5.4.8l-2.8,6c-.2.4-.5.5-.8.3-1.6-.9-3.1-1.2-5-1.2-3.9,0-6.4,2.8-6.4,7.1s2.6,7.1,6.4,7.1,3.4-.3,5-1.2c.3-.2.6,0,.8.3l2.8,6Z"/>
      <path d="M1245.7,463.4h3.3c.3,0,.6.3.6.6v4.1c0,.3-.3.6-.6.6h-5l-1.1,3.5c0,.3-.4.5-.7.5h-4.2c-.3,0-.5-.3-.4-.5l1.1-3.5h-1.7l-1.1,3.5c0,.3-.4.5-.7.5h-4.2c-.3,0-.5-.3-.4-.5l1.1-3.5h-1.2c-.3,0-.6-.3-.6-.6v-4.1c0-.3.2-.6.6-.6h2.9l.5-1.5h-3.4c-.3,0-.6-.3-.6-.6v-4.1c0-.3.2-.6.6-.6h5l1.1-3.5c0-.3.4-.5.7-.5h4.2c.3,0,.5.3.4.5l-1.1,3.5h1.6l1.1-3.5c0-.3.4-.5.7-.5h4.2c.3,0,.5.3.4.5l-1.1,3.5h1.2c.3,0,.6.3.6.6v4.1c0,.3-.3.6-.6.6h-2.9l-.4,1.5ZM1239.1,462l-.5,1.5h1.7l.4-1.5h-1.6Z"/>
    </g>
  </g>
  <g id="note-A3">
    <ellipse class="st0" cx="996" cy="556" rx="74.4" ry="122.6" transform="translate(-144.5 572.5) rotate(-30)"/>
  </g>
  <g id="note-Bb3">
    <ellipse class="st0" cx="718.8" cy="580.8" rx="119.2" ry="60.1" transform="translate(-176.3 810.5) rotate(-53.3)"/>
  </g>
  <g id="note-B3">
    <ellipse class="st0" cx="1384.1" cy="706.4" rx="136.5" ry="91.1" transform="translate(-130 356.7) rotate(-14)"/>
  </g>
  <g id="note-F#3">
    <ellipse class="st0" cx="334.2" cy="690.2" rx="97.4" ry="141" transform="translate(-428.7 768.2) rotate(-70)"/>
  </g>
  <g id="note-G3">
    <ellipse class="st0" cx="1271.3" cy="146" rx="136.5" ry="91.1"/>
  </g>
  <g id="note-G#3">
    <ellipse class="st0" cx="323.9" cy="187.3" rx="122.7" ry="100.9" transform="translate(-35.4 82.8) rotate(-13.8)"/>
  </g>
  <g id="note-A4">
    <ellipse class="st0" cx="966.1" cy="372.6" rx="57.3" ry="63.9" transform="translate(405.4 1243.1) rotate(-78.3)"/>
  </g>
  <g id="note-Bb4">
    <ellipse class="st0" cx="562.9" cy="719.3" rx="69.4" ry="60.1" transform="translate(-73.8 64.4) rotate(-6.1)"/>
  </g>
  <g id="note-B4">
    <ellipse class="st0" cx="1551.6" cy="564.2" rx="68.6" ry="91.1" transform="translate(931.9 2094.5) rotate(-87.9)"/>
  </g>
  <g id="note-C4">
    <ellipse class="st0" cx="673.6" cy="236.4" rx="78.4" ry="89.2" transform="translate(1.7 477.6) rotate(-39.1)"/>
  </g>
  <g id="note-C#4">
    <ellipse class="st0" cx="1050.4" cy="230.4" rx="91.1" ry="78.4" transform="translate(175.2 855.2) rotate(-47.9)"/>
  </g>
  <g id="note-D4">
    <ellipse class="st0" cx="175.5" cy="353.3" rx="82.5" ry="108.3" transform="translate(-216.5 397.4) rotate(-70)"/>
  </g>
  <g id="note-Eb4">
    <ellipse class="st0" cx="1553.5" cy="390.2" rx="113.7" ry="85.6" transform="translate(-48.3 388.4) rotate(-14)"/>
  </g>
  <g id="note-E4">
    <circle class="st0" cx="758.1" cy="389.3" r="70.5"/>
  </g>
  <g id="note-F4">
    <ellipse class="st0" cx="1146.9" cy="709.9" rx="70.4" ry="77.3" transform="translate(-41.3 1348.2) rotate(-60)"/>
  </g>
  <g id="note-F#4">
    <ellipse class="st0" cx="167.5" cy="531.8" rx="97.1" ry="74.2" transform="translate(-94.9 39.8) rotate(-10.6)"/>
  </g>
  <g id="note-G4">
    <ellipse class="st0" cx="1477.9" cy="225.5" rx="91.1" ry="68.6" transform="translate(345.6 1201.7) rotate(-49.4)"/>
  </g>
  <g id="note-G#4">
    <ellipse class="st0" cx="527.9" cy="143.7" rx="63.3" ry="72.2" transform="translate(-12.4 57.3) rotate(-6.1)"/>
  </g>
  <g id="note-A5">
    <ellipse class="st0" cx="1067.5" cy="441.4" rx="30.4" ry="39.1" transform="translate(418.9 1397.3) rotate(-78.3)"/>
  </g>
  <g id="note-Bb5">
    <path class="st0" d="M562.2,573.2c11.2,20.5,6.1,43.2-11.6,50.7-17.6,7.5-41.1-3.2-52.3-23.7-11.2-20.5-6.1-43.2,11.6-50.7,17.6-7.5,41.1,3.2,52.3,23.7Z"/>
  </g>
  <g id="note-B5">
    <ellipse class="st0" cx="1378.5" cy="546.8" rx="33.3" ry="42.8" transform="translate(306.5 1571.5) rotate(-65.3)"/>
  </g>
  <g id="note-C5">
    <path class="st0" d="M557.4,331.3c22.9-16.4,51.8-12,64.4,10,12.6,22,4.3,53.1-18.6,69.5-22.9,16.4-51.8,12-64.4-10-12.6-22-4.3-53.1,18.6-69.5Z"/>
  </g>
  <g id="note-C#5">
    <ellipse class="st0" cx="1151.5" cy="366.7" rx="48.3" ry="59.6" transform="translate(-2.1 726.7) rotate(-35)"/>
  </g>
  <g id="note-D5">
    <path class="st0" d="M409,326.4c29.4,15.5,41.9,45.2,27.9,66.3-14,21.1-49.3,25.6-78.7,10.1-29.4-15.5-41.9-45.2-27.9-66.3,14-21.1,49.3-25.6,78.7-10.1Z"/>
  </g>
  <g id="note-Eb5">
    <ellipse class="st0" cx="1352.7" cy="433.9" rx="59.6" ry="48.3" transform="translate(-64.8 341) rotate(-14)"/>
  </g>
  <g id="note-E5">
    <path class="st0" d="M653.3,436.5c26.9,8.4,40.7,34.1,30.8,57.4-9.9,23.3-39.8,35.4-66.7,26.9-26.9-8.4-40.7-34.1-30.8-57.4,9.9-23.3,39.8-35.4,66.7-26.9Z"/>
  </g>
  <g id="note-F5">
    <ellipse class="st0" cx="1191.7" cy="573.8" rx="54" ry="43.8" transform="translate(131.2 1364.1) rotate(-62.4)"/>
  </g>
  <g id="note-F#5">
    <path class="st0" d="M346.9,481.2c30.3-6.9,57.2,6.7,60.1,30.5,2.9,23.7-19.3,48.6-49.6,55.5-30.3,6.9-57.2-6.7-60.1-30.5-2.9-23.7,19.3-48.6,49.6-55.5Z"/>
  </g>
  <g id="note-G5">
    <ellipse class="st0" cx="1327.3" cy="307.9" rx="59.6" ry="48.3" transform="translate(230.3 1116) rotate(-49.4)"/>
  </g>
  <g id="note-G#5">
    <path class="st0" d="M449.3,279.3c-3.6-23.1,11.4-42.9,33.6-44.2,22.2-1.2,43.1,16.5,46.8,39.7,3.6,23.1-11.4,42.9-33.6,44.2-22.2,1.2-43.1-16.5-46.8-39.7Z"/>
  </g>
  <g id="note-C6">
    <path class="st0" d="M479.2,433.6c21.8-8.6,43.7-.6,48.9,17.8,5.2,18.4-8.3,40.4-30.1,48.9-21.8,8.6-43.7.6-48.9-17.8-5.2-18.4,8.3-40.4,30.1-48.9Z"/>
  </g>
  <g id="note-C#6">
    <ellipse class="st0" cx="1225.5" cy="462.1" rx="30.4" ry="39.1" transform="translate(107.7 1144.6) rotate(-52.1)"/>
  </g>
</svg>