<?xml version="1.0" encoding="UTF-8"?>
<svg xmlns="http://www.w3.org/2000/svg" version="1.1" viewBox="0 0 2482.4 1109.2">
  <!-- Generator: Adobe Illustrator 30.3.0, SVG Export Plug-In . SVG Version: 2.1.3 Build 182)  -->
  <defs>
    <style>
      .st0 {
        fill: none;
        stroke: #000;
        stroke-linecap: round;
        stroke-linejoin: round;
        stroke-width: 6px;
      }
    </style>
  </defs>
  <g id="Base">
    <circle class="st0" cx="436.9" cy="676.9" r="405.9"/>
    <circle class="st0" cx="1240.3" cy="432.4" r="405.9"/>
    <circle class="st0" cx="2045.6" cy="676.9" r="405.9"/>
  </g>
  <g id="label-Ab3">
    <g>
      <path d="M1470.9,287.3c.2.4,0,.8-.6.8h-12.9c-.6,0-1.1-.3-1.4-.8l-2-6.9h-12.3l-2,6.9c-.3.5-.8.8-1.4.8h-12.9c-.5,0-.8-.5-.6-.8l14.8-43.4c.2-.4.9-.8,1.6-.8h13.3c.7,0,1.4.5,1.6.8l14.8,43.4h0ZM1447.9,258.7l-3.5,12.4h7.1l-3.5-12.4h0Z"/>
      <path d="M1485.1,251.6c1.5-1.2,3.7-1.9,6-1.9,7.7,0,12.9,5.7,12.9,14.2s-5.2,14.2-12.9,14.2-6.4-1.3-8.3-3.2l-.7,1.8c-.2.4-.4.7-.8.7h-5.5c-.4,0-.7-.3-.7-.7v-34.1c0-.3.3-.7.7-.7h8.6c.4,0,.7.3.7.7v9.1h0ZM1485.1,267c.6,1.6,2.2,2.7,3.9,2.7,2.7,0,4.5-2.4,4.5-5.9s-1.8-5.7-4.5-5.7-3.3,1.1-3.9,2.7v6.2h0Z"/>
    </g>
  </g>
  <g id="label-A3">
    <path d="M296.1,907.5c.2.4,0,.8-.6.8h-12.9c-.6,0-1.1-.3-1.4-.8l-2-6.9h-12.3l-2,6.9c-.3.5-.8.8-1.4.8h-12.9c-.5,0-.8-.5-.6-.8l14.8-43.4c.2-.4.9-.8,1.6-.8h13.3c.7,0,1.4.5,1.6.8l14.8,43.4ZM273.2,878.9l-3.5,12.4h7.1l-3.5-12.4h-.1Z"/>
  </g>
  <g id="label-Bb3">
    <g>
      <path d="M1750.1,605.1c8.6,0,14.2,5.1,14.2,12.7s-2.3,8.2-5.8,9.2c4.1,1,6.8,5,6.8,10.4s-5.7,12.7-14.2,12.7h-20.7c-.5,0-.9-.5-.9-.9v-43.2c0-.5.4-1,.9-1h19.7ZM1747.1,622.8c2,0,3.3-1.2,3.3-3s-1.3-3-3.3-3h-4.1v6h4.1ZM1748.3,638.5c1.9,0,3.2-1.2,3.2-3.1s-1.3-3.1-3.2-3.1h-5.3v6.3h5.3Z"/>
      <path d="M1782,613.6c1.5-1.2,3.7-1.9,6-1.9,7.7,0,12.9,5.7,12.9,14.2s-5.2,14.2-12.9,14.2-6.4-1.3-8.3-3.2l-.7,1.8c-.2.4-.4.7-.8.7h-5.5c-.4,0-.7-.3-.7-.7v-34.1c0-.3.3-.7.7-.7h8.6c.4,0,.7.3.7.7v9.1h0ZM1782,629.1c.6,1.6,2.2,2.7,3.9,2.7,2.7,0,4.5-2.4,4.5-5.9s-1.8-5.7-4.5-5.7-3.3,1.1-3.9,2.7v6.2h0Z"/>
    </g>
  </g>
  <g id="label-C#3">
    <g>
      <path d="M1916,915c.2.5,0,.9-.6,1.2-3.8,2.4-8.9,3.8-13.7,3.8-13.5,0-22.5-9.4-22.5-23.5s9-23.5,22.5-23.5,9.9,1.4,13.7,3.8c.5.3.8.7.6,1.2l-4.3,9.1c-.3.6-.7.8-1.2.5-2.4-1.4-4.8-1.8-7.6-1.8-5.9,0-9.8,4.3-9.8,10.8s3.9,10.8,9.8,10.8,5.2-.5,7.6-1.8c.5-.3,1,0,1.2.5l4.3,9.1v-.2Z"/>
      <path d="M1943.7,899.8h5c.5,0,.8.5.8.9v6.2c0,.5-.4.9-.8.9h-7.6l-1.6,5.4c-.1.4-.7.8-1.1.8h-6.4c-.5,0-.7-.4-.6-.8l1.7-5.4h-2.5l-1.7,5.4c-.1.4-.7.8-1.1.8h-6.3c-.5,0-.7-.4-.6-.8l1.6-5.4h-1.9c-.5,0-.8-.4-.8-.9v-6.2c0-.5.3-.9.8-.9h4.4l.7-2.2h-5.1c-.5,0-.8-.4-.8-.8v-6.3c0-.5.3-1,.8-1h7.6l1.6-5.4c.1-.4.7-.8,1.1-.8h6.4c.5,0,.7.4.6.8l-1.6,5.4h2.5l1.7-5.4c.1-.4.7-.8,1.1-.8h6.3c.5,0,.8.4.7.8l-1.7,5.4h1.9c.5,0,.8.5.8,1v6.3c0,.5-.4.8-.8.8h-4.4l-.7,2.2h0ZM1933.8,897.6l-.7,2.2h2.5l.7-2.2h-2.5Z"/>
    </g>
  </g>
  <g id="label-B3">
    <path d="M981.8,517.1c8.6,0,14.2,5.1,14.2,12.7s-2.3,8.2-5.8,9.2c4.1,1,6.8,5,6.8,10.4s-5.7,12.7-14.2,12.7h-20.7c-.5,0-.9-.5-.9-.9v-43.2c0-.5.4-1,.9-1h19.7ZM978.8,534.8c2,0,3.3-1.2,3.3-3s-1.3-3-3.3-3h-4.1v6h4.1ZM980,550.4c1.9,0,3.2-1.2,3.2-3.1s-1.3-3.1-3.2-3.1h-5.3v6.3h5.3Z"/>
  </g>
  <g id="label-C3">
    <path d="M621.6,904.3c.2.5,0,.9-.6,1.2-3.8,2.4-8.9,3.8-13.7,3.8-13.5,0-22.5-9.4-22.5-23.5s9-23.5,22.5-23.5,9.9,1.4,13.7,3.8c.5.3.8.7.6,1.2l-4.3,9.1c-.3.6-.7.8-1.2.5-2.4-1.4-4.8-1.8-7.6-1.8-5.9,0-9.8,4.3-9.8,10.8s3.9,10.8,9.8,10.8,5.2-.5,7.6-1.8c.5-.3,1,0,1.2.5l4.3,9.1v-.2Z"/>
  </g>
  <g id="label-D3">
    <path d="M1277.2,662.1c13.8,0,23.1,8.9,23.1,22.5s-9.2,22.5-23.1,22.5h-15.2c-.5,0-.9-.5-.9-1v-43.1c0-.5.5-1,.9-1h15.2ZM1278,695.4c5,0,8.4-4.3,8.4-10.8s-3.4-10.8-8.4-10.8h-3.4v21.6h3.4Z"/>
  </g>
  <g id="label-Eb3">
    <g>
      <path d="M293.1,466.9c.5,0,1,.4,1,.8v10c0,.5-.5.9-1,.9h-30.4c-.5,0-.9-.5-1-1v-43.2c0-.6.3-.9.9-.9h29.7c.6,0,1,.5,1,.9v9.9c0,.6-.5,1-1,1h-17v5.2h13.8c.6,0,.9.5.8.8l-.9,9.1c0,.4-.5.8-1.1.8h-12.7v5.6h17.9Z"/>
      <path d="M310.6,442.1c1.5-1.2,3.7-1.9,6-1.9,7.7,0,12.9,5.7,12.9,14.2s-5.2,14.2-12.9,14.2-6.4-1.3-8.3-3.2l-.7,1.8c-.2.4-.4.7-.8.7h-5.5c-.4,0-.7-.3-.7-.7v-34.1c0-.3.3-.7.7-.7h8.6c.4,0,.7.3.7.7v9.1h0ZM310.6,457.6c.6,1.6,2.2,2.7,3.9,2.7,2.7,0,4.5-2.4,4.5-5.9s-1.8-5.7-4.5-5.7-3.3,1.1-3.9,2.7v6.2h0Z"/>
    </g>
  </g>
  <g id="label-E3">
    <path d="M2109.1,413.9c.5,0,1,.4,1,.8v10c0,.5-.5.9-1,.9h-30.4c-.5,0-.9-.5-1-1v-43.2c0-.6.3-.9.9-.9h29.7c.6,0,1,.5,1,.9v9.9c0,.6-.5,1-1,1h-17v5.2h13.8c.6,0,.9.5.8.8l-.9,9.1c0,.4-.5.8-1.1.8h-12.7v5.6h17.9Z"/>
  </g>
  <g id="label-F3">
    <path d="M1204.3,157c.6,0,1,.5,1,.9v9.9c0,.6-.4,1-1,1h-16.6v5.9h13.1c.6,0,.9.5.8.8l-.9,9.1c0,.4-.5.8-1.1.8h-12v15.6c0,.5-.5.9-1,.9h-11.6c-.5,0-.9-.5-.9-1v-43.2c0-.5.4-.9.9-.9h29.1l.2.2Z"/>
  </g>
  <g id="label-F#3">
    <g>
      <path d="M583.1,410.6c.6,0,1,.5,1,.9v9.9c0,.6-.4,1-1,1h-16.6v5.9h13.1c.6,0,.9.5.8.8l-.9,9.1c0,.4-.5.8-1.1.8h-12v15.6c0,.5-.5.9-1,.9h-11.6c-.5,0-.9-.5-.9-1v-43.2c0-.5.4-.9.9-.9h29.1l.2.2Z"/>
      <path d="M610.8,436.5h5c.5,0,.8.5.8.9v6.2c0,.5-.4.9-.8.9h-7.6l-1.6,5.4c0,.4-.7.8-1.1.8h-6.4c-.5,0-.7-.4-.6-.8l1.7-5.4h-2.5l-1.7,5.4c0,.4-.7.8-1.1.8h-6.3c-.5,0-.7-.4-.6-.8l1.6-5.4h-1.9c-.5,0-.8-.4-.8-.9v-6.2c0-.5.3-.9.8-.9h4.4l.7-2.2h-5.1c-.5,0-.8-.4-.8-.8v-6.3c0-.5.3-1,.8-1h7.6l1.6-5.4c0-.4.7-.8,1.1-.8h6.4c.5,0,.7.4.6.8l-1.6,5.4h2.5l1.7-5.4c0-.4.7-.8,1.1-.8h6.3c.5,0,.8.4.7.8l-1.7,5.4h1.9c.5,0,.8.5.8,1v6.3c0,.5-.4.8-.8.8h-4.4l-.7,2.2ZM600.9,434.2l-.7,2.2h2.5l.7-2.2h-2.5Z"/>
    </g>
  </g>
  <g id="label-G3">
    <path d="M2312.2,612.7c.5,0,1,.5,1,.9v20.8c0,.6-.3,1.2-.8,1.6-3.9,3.3-9.9,5.3-16.2,5.3-14.1,0-23.5-9.4-23.5-23.5s9.4-23.5,23.5-23.5,9.9,1.4,13.7,3.8c.5.3.7.8.6,1.2l-3.3,9.6c-.2.5-.7.7-1.2.5-2.7-1.4-6.1-2.3-9.4-2.3-6,0-10.1,4.3-10.1,10.7s4,10.8,10.1,10.8,4-.5,4.8-1.2v-3.8h-6c-.6,0-1-.3-1-.7l-.8-9c0-.7.3-1.1,1-1.1h17.7,0ZM2301.7,626.4v.3-.3Z"/>
  </g>
  <g id="label-Ab4">
    <g>
      <path d="M1310.3,421.6c.1.3,0,.6-.4.6h-8.5c-.4,0-.7-.2-.9-.6l-1.3-4.5h-8.1l-1.3,4.5c-.2.3-.5.6-.9.6h-8.5c-.3,0-.5-.3-.4-.6l9.7-28.5c.1-.3.6-.6,1-.6h8.8c.4,0,.9.3,1,.6l9.7,28.5ZM1295.2,402.8l-2.3,8.2h4.6l-2.3-8.2Z"/>
      <path d="M1319.1,398.9c1-.8,2.4-1.2,3.9-1.2,5,0,8.4,3.7,8.4,9.3s-3.4,9.3-8.4,9.3-4.2-.9-5.4-2.1l-.5,1.2c-.1.3-.3.5-.5.5h-3.6c-.3,0-.5-.2-.5-.5v-22.3c0-.2.2-.5.5-.5h5.6c.3,0,.5.2.5.5v6h0ZM1319.1,409c.4,1,1.4,1.8,2.6,1.8,1.8,0,2.9-1.6,2.9-3.9s-1.2-3.7-2.9-3.7-2.2.7-2.6,1.8v4.1h0Z"/>
    </g>
  </g>
  <g id="label-A4">
    <path d="M435.9,738.4c.1.3,0,.6-.4.6h-8.5c-.4,0-.7-.2-.9-.6l-1.3-4.5h-8.1l-1.3,4.5c-.2.3-.5.6-.9.6h-8.5c-.3,0-.5-.3-.4-.6l9.7-28.5c.1-.3.6-.6,1-.6h8.8c.4,0,.9.3,1,.6l9.7,28.5ZM420.8,719.5l-2.3,8.2h4.6l-2.3-8.2Z"/>
  </g>
  <g id="label-Bb4">
    <g>
      <path d="M1955.7,644.8c5.8,0,9.6,3.4,9.6,8.6s-1.6,5.5-3.9,6.2c2.8.7,4.6,3.4,4.6,7s-3.8,8.6-9.6,8.6h-14c-.3,0-.6-.3-.6-.6v-29.1c0-.3.3-.7.6-.7h13.3ZM1953.7,656.7c1.3,0,2.2-.8,2.2-2s-.9-2-2.2-2h-2.8v4h2.8ZM1954.5,667.3c1.3,0,2.2-.8,2.2-2.1s-.9-2.1-2.2-2.1h-3.6v4.2h3.6Z"/>
      <path d="M1977.2,650.5c1-.8,2.5-1.3,4-1.3,5.2,0,8.7,3.8,8.7,9.6s-3.5,9.6-8.7,9.6-4.3-.9-5.6-2.2l-.5,1.2c-.1.3-.3.5-.5.5h-3.7c-.3,0-.5-.2-.5-.5v-23c0-.2.2-.5.5-.5h5.8c.3,0,.5.2.5.5v6.1h0ZM1977.2,661c.4,1.1,1.5,1.8,2.6,1.8,1.8,0,3-1.6,3-4s-1.2-3.8-3-3.8-2.2.7-2.6,1.8v4.2h0Z"/>
    </g>
  </g>
  <g id="label-B4">
    <path d="M1188.8,453.1c5.6,0,9.4,3.4,9.4,8.4s-1.5,5.4-3.8,6.1c2.7.7,4.5,3.3,4.5,6.8s-3.7,8.4-9.3,8.4h-13.6c-.3,0-.6-.3-.6-.6v-28.4c0-.3.3-.6.6-.6h12.9ZM1186.8,464.8c1.3,0,2.1-.8,2.1-2s-.9-2-2.1-2h-2.7v4h2.7ZM1187.6,475.1c1.2,0,2.1-.8,2.1-2.1s-.9-2.1-2.1-2.1h-3.5v4.1h3.5Z"/>
  </g>
  <g id="label-C4">
    <path d="M749.1,633.8c.2.5,0,.9-.6,1.2-3.8,2.4-8.9,3.8-13.7,3.8-13.5,0-22.5-9.4-22.5-23.5s9-23.5,22.5-23.5,9.9,1.4,13.7,3.8c.5.3.8.7.6,1.2l-4.3,9.1c-.3.6-.7.8-1.2.5-2.4-1.4-4.8-1.8-7.6-1.8-5.9,0-9.8,4.3-9.8,10.8s3.9,10.8,9.8,10.8,5.2-.5,7.6-1.8c.5-.3,1,0,1.2.5l4.3,9.1v-.2Z"/>
  </g>
  <g id="label-C#4">
    <g>
      <path d="M2223.3,904.7c.2.5,0,.9-.6,1.2-3.8,2.4-8.9,3.8-13.7,3.8-13.5,0-22.5-9.4-22.5-23.5s9-23.5,22.5-23.5,9.9,1.4,13.7,3.8c.5.3.8.7.6,1.2l-4.3,9.1c-.3.6-.7.8-1.2.5-2.4-1.4-4.8-1.8-7.6-1.8-5.9,0-9.8,4.3-9.8,10.8s3.9,10.8,9.8,10.8,5.2-.5,7.6-1.8c.5-.3,1,0,1.2.5l4.3,9.1v-.2Z"/>
      <path d="M2251,889.5h5c.5,0,.8.5.8.9v6.2c0,.5-.4.9-.8.9h-7.6l-1.6,5.4c-.1.4-.7.8-1.1.8h-6.4c-.5,0-.7-.4-.6-.8l1.7-5.4h-2.5l-1.7,5.4c-.1.4-.7.8-1.1.8h-6.3c-.5,0-.7-.4-.6-.8l1.6-5.4h-1.9c-.5,0-.8-.4-.8-.9v-6.2c0-.5.3-.9.8-.9h4.4l.7-2.2h-5.1c-.5,0-.8-.4-.8-.8v-6.3c0-.5.3-1,.8-1h7.6l1.6-5.4c.1-.4.7-.8,1.1-.8h6.4c.5,0,.7.4.6.8l-1.6,5.4h2.5l1.7-5.4c.1-.4.7-.8,1.1-.8h6.3c.5,0,.8.4.7.8l-1.7,5.4h1.9c.5,0,.8.5.8,1v6.3c0,.5-.4.8-.8.8h-4.4l-.7,2.2h0ZM2241.1,887.3l-.7,2.2h2.5l.7-2.2h-2.5Z"/>
    </g>
  </g>
  <g id="label-D4">
    <path d="M1520.1,483.3c13.8,0,23.1,8.9,23.1,22.5s-9.2,22.5-23.1,22.5h-15.2c-.5,0-.9-.5-.9-1v-43.1c0-.5.5-1,.9-1h15.2ZM1520.9,516.6c5,0,8.4-4.3,8.4-10.8s-3.4-10.8-8.4-10.8h-3.4v21.6h3.4Z"/>
  </g>
  <g id="label-Eb4">
    <g>
      <path d="M161,702.9c.5,0,1,.4,1,.8v10c0,.5-.5.9-1,.9h-30.4c-.5,0-.9-.5-1-1v-43.2c0-.6.3-.9.9-.9h29.7c.6,0,1,.5,1,.9v9.9c0,.6-.5,1-1,1h-17v5.2h13.8c.6,0,.9.5.8.8l-.9,9.1c0,.4-.5.8-1.1.8h-12.7v5.6h17.9Z"/>
      <path d="M178.5,678.1c1.5-1.2,3.7-1.9,6-1.9,7.7,0,12.9,5.7,12.9,14.2s-5.2,14.2-12.9,14.2-6.4-1.3-8.3-3.2l-.7,1.8c-.2.4-.4.7-.8.7h-5.5c-.4,0-.7-.3-.7-.7v-34.1c0-.3.3-.7.7-.7h8.6c.4,0,.7.3.7.7v9.1h0ZM178.5,693.6c.6,1.6,2.2,2.7,3.9,2.7,2.7,0,4.5-2.4,4.5-5.9s-1.8-5.7-4.5-5.7-3.3,1.1-3.9,2.7v6.2h0Z"/>
    </g>
  </g>
  <g id="label-E4">
    <path d="M1876.8,464.8c.5,0,1,.4,1,.8v10c0,.5-.5.9-1,.9h-30.4c-.5,0-.9-.5-1-1v-43.2c0-.6.3-.9.9-.9h29.7c.6,0,1,.5,1,.9v9.9c0,.6-.5,1-1,1h-17v5.2h13.8c.6,0,.9.5.8.8l-.9,9.1c0,.4-.5.8-1.1.8h-12.7v5.6h17.9Z"/>
  </g>
  <g id="label-F4">
    <path d="M989.5,309.7c.6,0,1,.5,1,.9v9.9c0,.6-.4,1-1,1h-16.6v5.9h13.1c.6,0,.9.5.8.8l-.9,9.1c0,.4-.5.8-1.1.8h-12v15.6c0,.5-.5.9-1,.9h-11.6c-.5,0-.9-.5-.9-1v-43.2c0-.5.4-.9.9-.9h29.1l.2.2Z"/>
  </g>
  <g id="label-F#4">
    <g>
      <path d="M496.3,605.8c.4,0,.6.3.6.6v6.5c0,.4-.3.6-.6.6h-10.9v3.9h8.6c.4,0,.6.3.6.6l-.6,6c0,.3-.3.6-.7.6h-7.9v10.3c0,.3-.3.6-.6.6h-7.6c-.3,0-.6-.3-.6-.6v-28.4c0-.3.3-.6.6-.6h19.2Z"/>
      <path d="M514.6,626.2h3.3c.3,0,.6.3.6.6v4.1c0,.3-.3.6-.6.6h-5l-1.1,3.5c0,.3-.4.5-.7.5h-4.2c-.3,0-.5-.3-.4-.5l1.1-3.5h-1.7l-1.1,3.5c0,.3-.4.5-.7.5h-4.2c-.3,0-.5-.3-.4-.5l1.1-3.5h-1.2c-.3,0-.6-.3-.6-.6v-4.1c0-.3.2-.6.6-.6h2.9l.5-1.5h-3.4c-.3,0-.6-.3-.6-.6v-4.1c0-.3.2-.6.6-.6h5l1.1-3.5c0-.3.4-.5.7-.5h4.2c.3,0,.5.3.4.5l-1.1,3.5h1.6l1.1-3.5c0-.3.4-.5.7-.5h4.2c.3,0,.5.3.4.5l-1.1,3.5h1.2c.3,0,.6.3.6.6v4.1c0,.3-.3.6-.6.6h-2.9l-.4,1.5ZM508,624.7l-.5,1.5h1.7l.4-1.5h-1.6Z"/>
    </g>
  </g>
  <g id="label-G4">
    <path d="M2106.6,653.5c.3,0,.6.3.6.6v13.7c0,.4-.2.8-.5,1-2.6,2.2-6.5,3.5-10.7,3.5-9.3,0-15.5-6.2-15.5-15.5s6.2-15.5,15.5-15.5,6.5.9,9,2.5c.3.2.5.5.4.8l-2.1,6.3c-.1.3-.4.4-.8.3-1.8-.9-4-1.5-6.2-1.5-4,0-6.6,2.8-6.6,7s2.7,7.1,6.6,7.1,2.7-.3,3.1-.8v-2.5h-4c-.4,0-.6-.2-.7-.5l-.6-5.9c0-.4.2-.7.7-.7h11.6ZM2099.7,662.5v.2-.2Z"/>
  </g>
  <g id="note-Ab3">
    <path class="st0" d="M1639.4,358.1l-165.6,48.2c-32.2,9.4-66.8-3.4-85.1-31.5l-44.5-68.3c-12.4-18.9-15.7-42.4-9-64l57.4-186.6c126.6,51.2,221.4,164.5,246.8,302.1Z"/>
  </g>
  <g id="note-A3">
    <path class="st0" d="M366.4,805.8c36.1,27,52.8,72.9,42.3,116.7l-37.1,155c-148.1-23.9-269.3-128-317.8-266.2l186.7-47.3c33-8.4,68-1.4,95.3,19l30.6,22.9Z"/>
  </g>
  <g id="note-Bb3">
    <path class="st0" d="M1858,554.5c16.9,15,25.1,37.4,22,59.8l-8.6,61.7c-3.9,28.3-25.4,51.1-53.4,56.8l-168.3,34.2c-6.6-29-10-59.1-10-90.1,0-91.6,30.3-176,81.5-243.9l136.9,121.6Z"/>
  </g>
  <g id="note-C3">
    <path class="st0" d="M686.8,714.1l153.2,9.5c-23.3,224.9-241.6,392.9-468.5,353.9,23.1-81.5,33.7-221.5,112.6-272.2,56.4-46.4,124.8-100.5,202.6-91.2Z"/>
  </g>
  <g id="note-C#3">
    <path class="st0" d="M2113.5,899.7l65.6,160.6c-41.8,14.6-86.8,22.5-133.6,22.5-193.2,0-354.9-135-395.9-315.8l147.4-29.9c44.1-9,89.8-4,130.9,14.3l73.1,32.5c51,22.7,91.3,64.2,112.4,115.8Z"/>
  </g>
  <g id="note-B3">
    <path class="st0" d="M1112.8,493.6c5.8,13.9,8.6,28.4,8.6,42.8,0,33.8-15.5,66.8-43.6,88.3l-124.1,95.1c-73.7-73.5-119.2-175.1-119.2-287.4s.9-30.5,2.5-45.3l195.8,40.5c36,7.4,66,32.2,80.1,66.1Z"/>
  </g>
  <g id="note-D3">
    <path class="st0" d="M1421.8,565.6l159,87.8c-72.4,111.3-197.8,184.9-340.5,184.9s-213.2-45.3-286.7-118.5l161.4-123.7c20.1-15.4,43.9-25.2,69.1-28.3l151-18.9c29.9-3.7,60.3,2.1,86.7,16.7Z"/>
  </g>
  <g id="note-Eb3">
    <path class="st0" d="M445.9,435.3c2.3,41.7-15.4,82.1-47.6,108.7l-49.7,41.1c-36.9,30.5-87.4,38.6-132,21.1l-162.9-63.8c55.5-158.1,206-271.4,383.1-271.4l9,164.3Z"/>
  </g>
  <g id="note-E3">
    <path class="st0" d="M2313.2,371.7l-120.2,137.7c-24.8,28.4-62.4,42.1-99.6,36.3l-59.1-9.1c-38.8-6-71.4-32.2-85.6-68.8l-63.7-163.9c49.2-21.2,103.5-33,160.5-33,102.5,0,196.2,38,267.6,100.7Z"/>
  </g>
  <g id="note-F3">
    <path class="st0" d="M1392.6,56l-55.3,179.7c-10.5,34-37.5,60.2-71.8,69.7l-83.1,22.9c-36.8,10.2-76.3-.7-102.7-28.3l-137.3-143.2c74.1-80.1,180.2-130.3,298-130.3s105.3,10.5,152.3,29.5Z"/>
  </g>
  <g id="note-F#3">
    <path class="st0" d="M781,461.5l-118.8,80.8c-37.7,25.7-87.1,26.5-125.7,2.1l-37.7-23.8c-31.4-19.8-51.2-53.6-53.2-90.7l-8.7-159c145.1,0,272.4,76.1,344.1,190.6Z"/>
  </g>
  <g id="note-G3">
    <path class="st0" d="M2451.5,676.9c0,60.2-13.1,117.3-36.6,168.7l-186.7-76.5c-34.2-14-57.1-46.5-58.9-83.4l-5-102.9c-1.2-24.6,7.2-48.7,23.3-67.2l125.6-144c84.8,74.4,138.3,183.5,138.3,305.2Z"/>
  </g>
  <g id="note-Ab4">
    <ellipse class="st0" cx="1304.7" cy="404.9" rx="55.3" ry="81.3" transform="translate(-52.2 562.9) rotate(-23.9)"/>
  </g>
  <g id="note-A4">
    <rect class="st0" x="369.7" y="657.1" width="102.1" height="147.8" rx="51.1" ry="51.1" transform="translate(-408.9 579) rotate(-49.7)"/>
  </g>
  <g id="note-Bb4">
    <rect class="st0" x="1914" y="590.1" width="102.1" height="138.8" rx="51.1" ry="51.1" transform="translate(38.5 -105.1) rotate(3.1)"/>
  </g>
  <g id="note-B4">
    <rect class="st0" x="1136" y="394" width="102.1" height="147.8" rx="51.1" ry="51.1" transform="translate(-84.8 569.6) rotate(-26.1)"/>
  </g>
  <g id="note-C4">
    <path class="st0" d="M842.8,676.9c0,15.8-.9,31.4-2.7,46.8l-156-9.7c-21.6-1.3-41-10.6-55.4-24.8-14.4-14.3-23.8-33.6-25.2-55.2-2.1-30.6,12.2-60,37.5-77.2l140-95.2c39.1,62.4,61.8,136.2,61.8,215.3Z"/>
  </g>
  <g id="note-C#4">
    <path class="st0" d="M2219.8,765.7l195,79.9c-45.8,100-131,178.2-235.7,214.7l-73.7-180.3c-14.7-36-3.9-77.4,26.5-101.7,15.8-12.6,35.1-19.1,54.7-19.1s22.5,2.2,33.2,6.5Z"/>
  </g>
  <g id="note-D4">
    <path class="st0" d="M1639.4,358.1c4.5,24.1,6.8,48.9,6.8,74.3,0,81.5-24,157.4-65.4,221l-153.6-84.8c-26.8-14.8-39.4-46.4-30.1-75.6l12.1-38.2c6.5-20.4,22.7-36.2,43.2-42.2l187-54.5Z"/>
  </g>
  <g id="note-Eb4">
    <path class="st0" d="M246.5,617.9c31,12.1,50.7,42.7,49,75.9-.9,16.9-7.2,32.6-17.4,45.1-10.2,12.5-24.4,21.8-40.8,25.9l-183.5,46.5c-14.8-42.1-22.8-87.3-22.8-134.5s8-92.4,22.8-134.5l192.7,75.5Z"/>
  </g>
  <g id="note-E4">
    <path class="st0" d="M1952.1,476.4c11.3,29.1,0,62.1-26.9,78.1-10.2,6-21.5,9-32.7,9s-30.5-5.5-42.5-16.1l-128.9-114.5c42.2-56.1,98.6-100.8,163.9-129l67.1,172.5Z"/>
  </g>
  <g id="note-F4">
    <path class="st0" d="M1094.3,315.2c17.4,18.1,23.2,44.5,15,68.2-9.4,27.6-35.3,45.4-63.5,45.4s-9.1-.5-13.6-1.4l-195.3-40.4c9.8-88.4,48.1-168.3,105.4-230.3l152,158.5Z"/>
  </g>
  <g id="note-F#4">
    <ellipse class="st0" cx="497.5" cy="620.7" rx="55.3" ry="92.9" transform="translate(-297.4 650.6) rotate(-53.4)"/>
  </g>
  <g id="note-G4">
    <ellipse class="st0" cx="2094" cy="659.8" rx="55.3" ry="81.3" transform="translate(-14.7 48.6) rotate(-1.3)"/>
  </g>
</svg>